<svg xmlns="http://www.w3.org/2000/svg" viewBox="0 0 3050 1092" width="100%" height="100%">
  <!-- VLN Logo Vector (Transparent Background & Crisp Geometry) -->
  <g id="vln-logo-mark">
    <path fill="#8f908f" fill-rule="evenodd" d="M2529,943L2528,986L2529,994L2529,1012L2528,1013L2529,1018L2529,1039L2528,1045L2529,1047L2531,1048L2541,1048L2543,1046L2544,1014L2574,1013L2581,1020L2590,1035L2594,1039L2596,1044L2600,1048L2606,1049L2612,1048L2611,1042L2590,1014L2590,1012L2597,1007L2606,998L2611,988L2612,979L2611,968L2606,957L2598,949L2593,946L2588,945L2584,942ZM2543,955L2579,954L2590,959L2598,970L2598,984L2594,992L2584,1001L2573,1002L2544,1001L2542,999Z"/><path fill="#969897" fill-rule="evenodd" d="M1674,943L1674,952L1676,954L1708,954L1710,956L1709,1023L1710,1045L1713,1048L1722,1048L1724,1046L1725,1030L1724,1021L1725,994L1723,957L1726,954L1760,953L1759,942Z"/><path fill="#959697" fill-rule="evenodd" d="M253,943L253,1046L255,1048L327,1047L328,1045L327,1036L270,1036L268,1035L267,1002L269,1000L274,1001L318,1000L320,998L320,991L319,988L317,987L269,988L267,986L268,969L267,956L269,954L323,955L327,953L327,944L326,942Z"/><path fill="#8e8f8f" fill-rule="evenodd" d="M2813,942L2812,1044L2815,1048L2825,1048L2827,1047L2826,972L2828,969L2857,1004L2864,1015L2871,1022L2887,1044L2890,1047L2895,1049L2900,1048L2900,941L2888,942L2886,1021L2872,1002L2863,992L2861,988L2855,982L2844,966L2838,960L2827,944L2823,941Z"/><path fill="#969596" fill-rule="evenodd" d="M2766,941L2764,942L2763,948L2764,962L2763,1047L2771,1049L2777,1047L2778,1045L2777,980L2778,963L2776,942Z"/><path fill="#949695" fill-rule="evenodd" d="M2641,941L2639,943L2640,1001L2639,1045L2642,1048L2652,1048L2654,1046L2653,974L2655,969L2686,1007L2714,1045L2719,1048L2728,1047L2729,1041L2727,989L2727,942L2725,941L2714,942L2712,1020L2657,950L2653,943L2650,941Z"/><path fill="#8c8d8d" fill-rule="evenodd" d="M2447,943L2447,946L2444,951L2443,956L2440,960L2436,972L2428,987L2423,1001L2420,1005L2415,1020L2408,1032L2407,1038L2403,1042L2404,1048L2415,1048L2418,1046L2421,1036L2424,1032L2426,1026L2431,1020L2443,1021L2444,1020L2453,1021L2480,1020L2486,1027L2493,1045L2496,1048L2501,1048L2502,1049L2508,1048L2509,1045L2508,1042L2503,1035L2499,1023L2496,1019L2495,1014L2493,1012L2491,1005L2488,1001L2488,998L2483,990L2479,978L2476,975L2475,970L2472,966L2471,961L2462,942L2452,941ZM2453,960L2456,959L2458,961L2459,966L2462,970L2463,975L2471,991L2475,1003L2477,1005L2477,1007L2475,1009L2466,1008L2442,1008L2438,1009L2436,1008L2435,1005L2437,999L2439,997L2440,992L2444,985L2444,982L2448,975L2448,972L2452,966Z"/><path fill="#969898" fill-rule="evenodd" d="M2315,942L2314,945L2315,1046L2317,1048L2339,1047L2387,1048L2389,1046L2390,1042L2389,1037L2387,1035L2331,1036L2328,1033L2329,1003L2330,1000L2332,999L2377,1001L2381,999L2382,997L2382,991L2379,988L2373,987L2330,988L2328,986L2328,957L2329,955L2382,955L2387,954L2388,952L2388,943L2386,941Z"/><path fill="#959797" fill-rule="evenodd" d="M2222,943L2223,1047L2225,1048L2271,1047L2290,1048L2292,1047L2293,1037L2291,1035L2238,1035L2236,1033L2237,944L2235,942L2230,941Z"/><path fill="#8f9090" fill-rule="evenodd" d="M1959,942L1958,1042L1959,1047L1961,1048L1971,1048L1973,1046L1972,975L1974,968L2007,1009L2012,1017L2018,1023L2019,1026L2034,1045L2038,1048L2045,1049L2047,1047L2046,942L2044,941L2033,943L2033,952L2034,953L2034,1019L2032,1021L2028,1017L2027,1014L2012,994L1985,962L1972,944L1968,941Z"/><path fill="#969898" fill-rule="evenodd" d="M1794,941L1783,941L1781,942L1783,1048L1796,1047L1796,942Z"/><path fill="#8f908f" fill-rule="evenodd" d="M1613,943L1612,948L1610,950L1609,956L1605,962L1605,965L1602,969L1601,974L1598,978L1597,983L1594,987L1593,992L1590,996L1589,1001L1586,1005L1584,1012L1582,1014L1582,1017L1578,1023L1577,1028L1574,1032L1574,1035L1572,1039L1569,1042L1570,1048L1581,1048L1586,1040L1586,1037L1590,1031L1591,1026L1595,1021L1598,1020L1646,1020L1651,1025L1660,1046L1662,1048L1674,1048L1675,1045L1674,1041L1671,1038L1661,1014L1654,1002L1649,991L1649,988L1642,975L1641,970L1638,965L1638,962L1634,956L1633,951L1630,947L1629,943L1626,941L1617,941ZM1621,959L1624,962L1625,967L1628,971L1629,976L1633,983L1633,986L1637,991L1637,994L1643,1005L1643,1007L1641,1009L1602,1009L1599,1006L1603,1000L1606,990L1609,986L1614,972L1618,966L1618,962Z"/><path fill="#8e908f" fill-rule="evenodd" d="M1466,941L1465,947L1469,953L1470,958L1473,962L1478,976L1482,982L1482,985L1485,990L1486,995L1490,1001L1490,1004L1493,1008L1494,1013L1497,1017L1498,1022L1502,1028L1510,1047L1522,1048L1526,1044L1526,1040L1530,1034L1531,1028L1538,1016L1539,1010L1542,1006L1543,1001L1546,998L1546,995L1554,980L1555,975L1558,971L1559,965L1562,961L1562,958L1566,952L1569,943L1567,941L1555,942L1554,947L1549,956L1546,965L1542,971L1541,976L1538,980L1538,983L1530,998L1530,1001L1526,1010L1516,1028L1514,1026L1514,1023L1511,1018L1510,1013L1506,1007L1506,1004L1503,1000L1502,994L1499,990L1494,976L1491,972L1491,969L1483,954L1482,948L1479,943L1476,941L1472,942Z"/><path fill="#939494" fill-rule="evenodd" d="M1232,941L1230,943L1230,948L1231,949L1230,1016L1232,1048L1244,1047L1243,970L1247,969L1252,977L1275,1005L1276,1008L1282,1014L1305,1045L1309,1048L1319,1047L1320,1045L1319,944L1314,941L1309,941L1304,943L1305,1014L1303,1020L1292,1005L1286,999L1284,995L1280,992L1244,944L1240,941Z"/><path fill="#969796" fill-rule="evenodd" d="M1107,942L1105,1042L1106,1047L1110,1049L1117,1049L1121,1046L1120,976L1122,970L1144,996L1149,1004L1180,1042L1181,1045L1186,1048L1194,1047L1195,1045L1195,944L1194,942L1192,941L1182,941L1180,943L1180,1020L1177,1019L1173,1012L1162,1000L1158,993L1149,983L1144,975L1142,974L1120,944L1115,941Z"/><path fill="#8e8e8e" fill-rule="evenodd" d="M1067,941L1057,942L1058,1048L1070,1047L1070,944Z"/><path fill="#9b9b9c" fill-rule="evenodd" d="M613,941L612,944L612,949L613,950L612,969L613,1044L614,1047L616,1048L624,1048L626,1047L628,1043L627,1038L628,1016L627,943L625,941Z"/><path fill="#929394" fill-rule="evenodd" d="M532,942L520,949L514,956L509,968L509,974L514,985L520,991L532,998L537,998L545,1002L553,1002L566,1007L572,1013L573,1024L572,1027L566,1033L554,1037L543,1037L537,1036L532,1033L527,1033L517,1025L514,1024L509,1028L508,1034L510,1037L517,1042L519,1042L525,1046L530,1046L537,1049L556,1049L563,1046L568,1046L576,1041L585,1031L588,1019L585,1007L580,1001L568,993L564,993L554,989L549,989L544,986L536,985L529,981L526,978L524,973L524,968L526,961L535,954L544,953L562,954L566,955L575,962L579,961L581,957L582,951L580,948L570,945L567,942L558,941Z"/><path fill="#999a9a" fill-rule="evenodd" d="M478,941L466,942L465,945L466,1046L468,1048L478,1048L480,1046L479,974L480,943Z"/><path fill="#8e9090" fill-rule="evenodd" d="M142,941L140,943L140,1046L142,1048L154,1047L153,1016L155,1014L186,1014L194,1023L199,1032L203,1036L208,1046L213,1048L222,1049L224,1047L224,1043L218,1037L215,1031L201,1012L211,1005L217,999L224,985L224,972L217,957L210,950L204,946L198,945L194,942ZM153,956L155,954L189,954L200,958L207,965L210,973L210,982L207,990L199,998L194,1001L180,1002L155,1001L153,999Z"/><path fill="#929493" fill-rule="evenodd" d="M97,947L90,945L85,942L35,941L30,943L29,986L30,1007L29,1013L30,1044L31,1047L33,1048L42,1048L45,1045L44,1016L46,1014L82,1014L87,1013L92,1010L95,1010L108,998L113,987L113,968L107,956ZM45,955L79,954L84,955L92,959L98,966L100,972L100,985L97,991L91,997L84,1001L47,1002L44,999Z"/><path fill="#929393" fill-rule="evenodd" d="M2966,942L2960,946L2957,946L2946,954L2936,965L2935,969L2932,973L2928,985L2928,1003L2931,1009L2932,1016L2939,1027L2950,1038L2964,1046L2969,1046L2977,1049L2993,1049L3001,1046L3006,1046L3022,1037L3024,1028L3023,1014L3024,997L3023,994L3021,993L3011,993L3009,995L3010,1027L3004,1033L3000,1033L2988,1037L2980,1037L2975,1036L2970,1033L2964,1032L2961,1029L2958,1028L2948,1017L2944,1007L2943,997L2945,977L2950,969L2960,959L2964,958L2968,955L2972,954L2996,954L3006,958L3011,964L3016,965L3024,956L3023,954L3020,953L3016,949L3011,946L3006,945L3002,942L2987,940Z"/><path fill="#8b8d8c" fill-rule="evenodd" d="M1860,942L1844,951L1836,959L1829,969L1827,977L1824,982L1823,990L1824,1009L1827,1013L1828,1019L1831,1022L1831,1024L1843,1037L1858,1046L1862,1046L1870,1049L1886,1049L1893,1046L1899,1046L1917,1034L1928,1018L1929,1012L1931,1010L1932,1003L1932,988L1930,978L1927,970L1921,961L1910,950L1905,947L1899,945L1895,942L1883,940L1872,940L1866,942ZM1866,954L1875,953L1891,954L1897,958L1901,959L1906,963L1915,975L1915,978L1919,987L1918,1005L1911,1020L1902,1029L1896,1033L1881,1037L1875,1037L1864,1033L1860,1033L1852,1028L1847,1023L1840,1012L1837,1003L1837,986L1840,981L1840,977L1845,969L1855,959Z"/><path fill="#8c8c8c" fill-rule="evenodd" d="M1383,942L1368,950L1366,953L1359,958L1352,968L1347,980L1346,991L1347,1008L1350,1013L1351,1018L1354,1021L1359,1030L1365,1036L1372,1041L1376,1042L1379,1045L1387,1046L1394,1049L1411,1049L1417,1046L1422,1046L1437,1037L1447,1026L1451,1019L1451,1016L1455,1010L1455,983L1452,978L1451,972L1448,968L1447,964L1436,952L1428,946L1423,945L1419,942L1406,940L1395,940ZM1386,955L1392,954L1412,954L1416,955L1427,961L1434,968L1435,971L1438,974L1439,981L1442,988L1441,1005L1435,1019L1425,1029L1419,1033L1405,1037L1397,1037L1387,1033L1383,1033L1375,1028L1370,1023L1364,1014L1360,1001L1360,986L1363,980L1363,977L1370,966L1378,959L1382,958Z"/><path fill="#8f9190" fill-rule="evenodd" d="M793,941L791,943L791,1046L792,1048L802,1049L805,1046L804,973L807,969L866,1044L871,1048L874,1049L878,1048L880,1045L880,943L878,941L866,942L867,1019L865,1021L861,1017L858,1011L831,979L802,941L799,940Z"/><path fill="#8d8e8d" fill-rule="evenodd" d="M692,942L688,945L683,946L672,954L660,969L660,972L656,980L655,988L656,1009L659,1013L660,1019L670,1033L690,1046L694,1046L701,1049L720,1049L726,1046L731,1046L745,1037L756,1025L760,1018L760,1015L764,1006L764,985L760,972L755,963L747,954L738,947L731,945L727,942L714,940ZM686,959L698,954L722,954L737,962L747,975L748,982L750,984L751,988L751,1001L748,1011L743,1020L730,1032L713,1037L701,1036L696,1033L692,1033L684,1028L677,1021L673,1015L669,1004L669,984L674,972Z"/><path fill="#939494" fill-rule="evenodd" d="M385,942L381,945L374,947L364,954L359,959L351,972L350,978L346,987L346,999L350,1009L351,1016L359,1029L372,1041L376,1042L381,1046L386,1046L392,1049L411,1049L418,1046L422,1046L436,1037L441,1031L440,1029L435,1025L431,1024L422,1032L407,1037L398,1037L393,1036L388,1033L384,1033L376,1028L367,1019L364,1014L361,1003L360,992L364,975L374,963L380,958L390,954L415,954L423,958L430,965L433,965L439,960L440,956L439,954L436,953L432,949L420,942L413,942L407,940L396,940Z"/><path fill="#919191" fill-rule="evenodd" d="M962,935L963,1075L972,1076L975,1072L974,1066L974,969L975,959L974,955L975,937L974,935Z"/><path fill="#9b9c9b" fill-rule="evenodd" d="M2134,933L2127,935L2126,937L2127,1074L2129,1076L2138,1076L2140,1074L2139,1001L2140,998L2139,979L2140,936L2138,934Z"/><path fill="#1a729b" fill-rule="evenodd" d="M2809,746L2807,748L2808,871L2811,872L2815,871L2817,872L2824,871L2825,872L2832,872L2836,871L2837,869L2836,805L2838,802L2851,818L2852,821L2863,833L2864,836L2876,849L2893,871L2895,872L2915,872L2917,870L2917,748L2915,746L2888,747L2886,816L2860,783L2858,782L2833,748L2829,746Z"/><path fill="#22769d" fill-rule="evenodd" d="M2614,746L2612,748L2613,781L2613,856L2612,868L2613,870L2617,872L2621,871L2640,872L2643,869L2643,749L2642,747Z"/><path fill="#25789e" fill-rule="evenodd" d="M2496,747L2495,749L2495,770L2496,772L2498,773L2526,772L2531,773L2532,777L2531,869L2532,871L2536,872L2548,871L2557,872L2562,871L2563,869L2563,774L2565,772L2571,773L2597,773L2599,771L2599,748L2597,746L2498,746Z"/><path fill="#20769d" fill-rule="evenodd" d="M2285,747L2284,749L2285,860L2284,868L2285,870L2292,872L2381,872L2382,871L2399,872L2404,868L2405,863L2409,855L2410,849L2415,845L2454,847L2461,846L2466,851L2467,858L2470,861L2471,866L2474,871L2476,872L2504,871L2504,865L2501,862L2496,848L2492,842L2492,839L2488,833L2488,829L2484,823L2484,820L2472,795L2472,792L2465,779L2464,773L2460,766L2460,763L2452,747L2450,746L2425,746L2422,749L2415,768L2411,774L2411,777L2408,781L2407,786L2403,792L2402,797L2400,799L2399,805L2395,810L2395,814L2392,818L2391,825L2388,830L2387,835L2384,839L2383,845L2376,858L2372,863L2373,850L2371,846L2317,846L2315,845L2314,842L2316,811L2316,749L2313,746L2288,746ZM2438,782L2441,786L2447,801L2447,805L2450,809L2453,817L2451,819L2424,818L2424,815L2428,807L2429,801L2432,796L2433,790Z"/><path fill="#1e749c" fill-rule="evenodd" d="M2153,747L2153,832L2157,841L2157,845L2161,849L2161,851L2166,858L2177,867L2181,868L2185,871L2207,875L2215,874L2219,872L2226,872L2243,863L2253,851L2257,843L2258,836L2261,829L2262,773L2261,747L2259,746L2232,747L2232,817L2231,824L2227,837L2221,843L2215,846L2201,846L2194,843L2186,835L2183,818L2183,749L2182,747Z"/><path fill="#277ca2" fill-rule="evenodd" d="M1940,746L1938,748L1939,780L1938,785L1939,790L1938,868L1939,871L1944,872L1966,872L1970,870L1971,867L1969,846L1970,841L1969,748L1967,746Z"/><path fill="#287aa2" fill-rule="evenodd" d="M1652,746L1650,748L1650,869L1652,871L1656,872L1677,872L1681,870L1682,868L1682,821L1684,820L1729,821L1729,869L1730,871L1733,872L1757,872L1759,871L1761,867L1760,860L1761,855L1761,839L1760,838L1761,834L1761,776L1760,773L1761,752L1760,748L1758,746L1732,746L1730,748L1729,794L1681,793L1682,751L1680,747L1678,746Z"/><path fill="#2479a1" fill-rule="evenodd" d="M1534,747L1533,750L1533,769L1534,772L1536,773L1568,772L1570,774L1570,869L1572,871L1578,872L1595,872L1600,870L1601,868L1600,776L1601,773L1603,772L1608,773L1627,772L1636,773L1638,771L1638,749L1637,747L1635,746Z"/><path fill="#25789f" fill-rule="evenodd" d="M1457,746L1455,748L1456,822L1455,869L1460,872L1541,872L1543,870L1543,848L1542,846L1540,845L1487,845L1487,781L1486,774L1487,773L1486,749L1483,746Z"/><path fill="#1a709a" fill-rule="evenodd" d="M1363,749L1362,755L1359,758L1358,764L1355,769L1355,772L1351,777L1351,781L1343,796L1343,799L1340,804L1339,810L1336,814L1327,839L1323,845L1323,848L1320,853L1318,860L1314,865L1313,870L1315,872L1344,871L1348,864L1348,860L1352,853L1352,849L1356,845L1403,845L1406,848L1407,854L1410,858L1411,863L1415,871L1417,872L1443,872L1445,871L1446,869L1440,858L1439,852L1435,846L1435,843L1432,839L1431,834L1428,830L1427,824L1423,818L1423,815L1420,810L1419,804L1412,791L1411,785L1404,773L1403,767L1395,752L1395,749L1391,746L1367,746ZM1378,783L1381,784L1383,792L1386,797L1386,801L1394,816L1394,819L1391,821L1365,819L1365,816L1368,811L1368,807L1376,792L1376,787Z"/><path fill="#22769f" fill-rule="evenodd" d="M1216,747L1215,752L1217,871L1221,872L1237,871L1306,872L1308,871L1309,868L1308,846L1247,846L1245,844L1246,821L1248,820L1295,821L1300,819L1300,797L1298,795L1245,794L1246,772L1306,771L1307,769L1307,749L1306,747L1304,746L1218,746Z"/><path fill="#2278a1" fill-rule="evenodd" d="M1082,747L1081,750L1082,871L1086,872L1092,871L1108,872L1113,870L1114,821L1161,822L1161,869L1166,872L1171,871L1188,872L1192,869L1192,773L1190,747L1188,746L1164,746L1162,747L1161,749L1162,792L1160,794L1135,795L1114,794L1112,791L1113,749L1112,747L1109,746L1084,746Z"/><path fill="#19719b" fill-rule="evenodd" d="M900,747L900,871L904,872L969,871L971,869L981,867L983,865L990,863L1000,855L1010,843L1014,834L1015,826L1018,819L1018,801L1015,793L1014,785L1005,769L991,756L987,755L982,751L978,751L974,748L960,746L902,746ZM932,772L961,773L971,777L981,786L986,796L987,816L985,825L975,838L966,843L962,843L959,845L953,846L932,846L930,845L929,843L931,839L930,774Z"/><path fill="#21779e" fill-rule="evenodd" d="M789,747L788,749L789,871L793,872L815,871L823,872L837,871L878,872L880,871L881,849L880,847L820,846L817,843L819,840L818,824L819,821L821,820L870,821L872,819L872,800L870,795L820,795L817,792L819,788L818,774L820,772L879,771L879,748L877,746L791,746Z"/><path fill="#1b739b" fill-rule="evenodd" d="M442,747L441,752L437,758L436,764L434,766L433,772L430,777L429,782L425,789L422,800L418,806L413,821L410,824L410,827L406,834L406,837L398,852L397,858L391,868L391,871L393,872L420,872L422,871L423,867L426,863L427,856L433,845L484,846L489,857L489,861L492,865L494,871L497,872L523,872L525,871L526,868L518,856L517,851L514,846L514,843L511,839L509,832L506,828L506,825L502,819L502,816L498,809L498,806L494,799L494,796L490,791L489,785L486,781L486,777L482,771L482,768L479,764L478,757L475,753L474,749L470,746L444,746ZM456,781L458,781L460,783L461,789L465,795L465,799L469,805L469,810L473,816L473,819L471,821L445,821L442,818L446,811L447,804L451,798L451,794L454,789Z"/><path fill="#1c739c" fill-rule="evenodd" d="M161,747L160,749L161,869L162,871L164,872L223,872L230,871L235,868L241,867L250,863L259,856L271,841L272,836L276,830L276,823L279,816L279,804L276,796L275,787L272,783L271,778L263,767L249,755L247,755L244,752L238,751L231,747L224,746L163,746ZM193,772L224,773L226,775L231,776L242,786L247,797L247,819L242,831L236,838L233,839L230,842L215,846L203,845L193,846L190,842L190,775Z"/><path fill="#1b739b" fill-rule="evenodd" d="M70,747L67,755L64,758L64,762L60,768L60,771L56,777L55,782L52,786L52,789L48,794L48,799L44,805L44,809L37,822L36,828L33,833L32,838L28,844L28,847L25,852L24,857L20,862L19,871L21,872L46,872L49,871L50,866L53,862L54,855L57,851L57,848L60,845L107,845L111,848L120,870L124,872L148,872L151,871L152,869L144,854L144,851L141,847L140,842L137,838L136,833L133,828L132,822L125,809L125,805L121,799L121,796L117,790L117,787L113,780L113,777L109,772L108,766L105,762L105,758L101,753L99,747L97,746L72,746ZM85,783L87,785L88,791L91,795L92,801L95,804L96,810L99,815L98,820L72,820L70,818L70,816L73,812L74,806L77,802L78,796L81,792L82,785Z"/><path fill="#1d749d" fill-rule="evenodd" d="M1994,747L1995,871L1998,872L2019,872L2023,870L2024,807L2029,814L2030,818L2033,821L2034,825L2045,841L2046,845L2050,849L2054,858L2056,859L2070,858L2072,852L2078,843L2079,839L2082,836L2084,830L2091,820L2091,817L2094,814L2096,809L2100,809L2101,821L2100,825L2100,869L2101,871L2104,872L2125,872L2129,870L2130,868L2128,747L2126,746L2105,746L2102,748L2101,752L2091,768L2089,774L2086,777L2085,781L2075,797L2073,803L2070,806L2069,810L2066,813L2065,817L2060,819L2058,813L2049,799L2043,786L2039,782L2038,778L2031,768L2031,766L2028,763L2026,757L2023,754L2020,748L2018,746L2014,745L1999,745Z"/><path fill="#1f769e" fill-rule="evenodd" d="M536,746L534,748L535,859L534,869L536,871L563,871L565,869L566,824L564,806L566,803L620,871L635,872L642,871L644,869L644,749L641,746L618,746L614,747L613,749L614,813L612,815L597,796L596,793L590,787L558,746L549,745Z"/><path fill="#1e7399" fill-rule="evenodd" d="M276,747L276,750L282,762L282,765L286,770L287,776L290,781L290,784L295,793L295,796L298,801L298,805L302,811L302,817L306,822L306,826L310,832L311,838L314,841L314,845L318,852L318,856L321,859L323,866L329,872L353,871L355,869L356,864L359,861L359,857L363,850L363,847L367,841L368,835L371,830L372,825L375,821L376,815L379,811L379,807L391,781L391,777L395,772L395,768L398,764L399,758L403,752L402,746L376,746L374,747L362,775L362,779L358,786L358,790L354,796L353,802L351,804L349,811L346,814L346,818L340,829L335,818L335,814L332,810L331,804L324,791L324,787L320,780L315,764L307,747L291,745Z"/><path fill="#20749c" fill-rule="evenodd" d="M2978,744L2968,747L2963,747L2959,750L2955,751L2944,761L2936,776L2936,792L2939,797L2939,800L2948,810L2965,819L2974,820L2981,823L2987,823L2998,828L3003,834L3003,839L2996,846L2982,848L2966,846L2961,843L2956,842L2946,836L2944,836L2942,838L2940,845L2935,853L2935,861L2945,867L2952,868L2956,871L2970,872L2976,874L2990,874L2995,872L3006,871L3009,868L3014,867L3020,863L3027,856L3029,851L3032,848L3034,830L3032,821L3025,811L3016,806L3013,803L3007,802L3001,799L2996,799L2988,795L2978,794L2972,791L2968,787L2968,785L2966,783L2966,779L2972,772L2977,772L2981,770L3004,773L3015,779L3020,778L3020,776L3024,770L3024,767L3028,760L3027,755L3020,751L3016,751L3009,747L3004,747L2995,744Z"/><path fill="#186e98" fill-rule="evenodd" d="M2700,748L2682,759L2672,770L2665,782L2665,785L2662,790L2661,795L2661,821L2662,826L2665,831L2665,835L2673,848L2682,858L2688,863L2703,871L2713,872L2718,874L2731,874L2736,872L2744,872L2748,869L2755,867L2762,863L2772,855L2778,848L2783,837L2786,834L2786,828L2790,818L2790,802L2789,796L2786,790L2786,785L2782,780L2778,771L2773,765L2763,756L2750,748L2739,746L2735,744L2716,744ZM2714,772L2735,772L2744,776L2755,788L2760,801L2760,814L2757,821L2756,827L2753,832L2744,841L2733,846L2717,846L2706,841L2700,836L2695,829L2691,818L2691,801L2692,797L2694,795L2694,791L2699,783L2705,777Z"/><path fill="#22769e" fill-rule="evenodd" d="M1868,744L1851,748L1844,752L1836,759L1832,764L1827,775L1826,783L1827,794L1832,804L1841,812L1843,812L1846,815L1851,816L1858,820L1863,820L1870,823L1881,824L1885,827L1888,827L1892,830L1894,834L1894,838L1892,842L1885,847L1868,848L1852,845L1837,836L1832,837L1831,843L1824,855L1824,857L1828,862L1837,867L1843,868L1847,871L1859,872L1865,874L1881,874L1885,872L1896,871L1909,864L1915,858L1920,851L1920,847L1923,840L1923,829L1918,816L1909,807L1892,799L1887,799L1878,795L1870,794L1865,791L1862,791L1857,785L1857,778L1864,772L1877,770L1884,772L1891,772L1907,780L1912,775L1913,767L1916,764L1917,756L1902,747L1892,746L1888,744Z"/><path fill="#20769d" fill-rule="evenodd" d="M714,744L702,747L696,751L692,752L682,759L672,770L667,781L664,784L663,792L660,800L660,817L663,824L664,832L667,835L667,838L677,853L689,864L702,871L712,872L716,874L729,875L738,872L745,872L762,863L772,853L772,847L757,833L751,834L744,842L736,846L728,847L716,846L706,841L700,836L693,825L691,811L693,792L696,789L697,785L705,777L716,772L734,772L738,773L745,777L751,784L753,785L758,784L772,769L772,765L761,755L755,751L752,751L747,747L735,744Z"/><path fill="#27769d" fill-rule="evenodd" d="M1213,141L1211,141L1236,170L1255,201L1267,228L1267,231L1273,246L1273,250L1275,254L1279,271L1283,307L1282,351L1279,371L1273,395L1261,425L1247,451L1230,475L1200,505L1174,524L1144,539L1133,542L1127,545L1103,551L1085,553L1066,553L1056,551L1044,551L1038,549L1034,550L1035,553L1044,556L1049,556L1053,558L1081,561L1105,561L1140,555L1160,549L1165,546L1175,543L1197,531L1219,516L1243,494L1255,480L1271,457L1284,432L1291,414L1295,399L1297,396L1298,388L1301,379L1301,374L1303,369L1305,351L1306,331L1303,295L1301,290L1301,285L1297,268L1295,265L1291,250L1284,233L1268,202L1256,186L1255,183L1240,165L1221,146Z"/><path fill="#1473a2" fill-rule="evenodd" d="M2177,126L2174,130L2173,377L2174,419L2176,435L2179,442L2180,455L2185,470L2196,493L2200,497L2207,509L2227,529L2245,540L2253,543L2256,546L2262,547L2271,551L2284,553L2298,557L2497,557L2499,556L2501,547L2501,489L2497,485L2415,486L2312,485L2301,481L2293,480L2284,475L2267,459L2257,439L2255,418L2252,407L2251,369L2252,363L2251,348L2253,137L2252,129L2249,125L2180,125Z"/><path fill="#0d70a1" fill-rule="evenodd" d="M2623,126L2621,130L2621,552L2622,554L2629,557L2671,556L2695,557L2700,552L2700,545L2699,544L2700,536L2699,478L2699,317L2700,297L2699,296L2700,292L2698,267L2699,253L2717,273L2726,285L2735,294L2742,304L2751,313L2788,359L2801,373L2802,376L2814,389L2823,401L2826,403L2837,418L2846,427L2873,461L2887,476L2889,480L2914,508L2934,534L2951,553L2959,557L3021,557L3023,556L3026,552L3025,156L3026,148L3025,128L3024,126L3019,124L2952,124L2947,126L2946,128L2947,425L2945,430L2932,416L2930,412L2911,390L2899,374L2882,356L2881,353L2852,320L2851,317L2838,303L2821,280L2808,266L2788,240L2777,229L2776,226L2767,214L2744,189L2739,181L2725,165L2724,162L2695,127L2691,125L2665,124L2662,125L2659,124L2655,125L2631,124Z"/><path fill="#0a70a1" fill-rule="evenodd" d="M1604,124L1602,126L1602,134L1615,158L1616,163L1626,182L1626,185L1636,207L1638,209L1638,211L1642,217L1642,220L1647,228L1652,240L1652,243L1662,262L1668,279L1681,304L1681,306L1683,308L1684,313L1689,324L1693,329L1695,337L1700,344L1704,353L1704,356L1710,366L1713,375L1716,378L1716,381L1721,389L1722,394L1742,438L1748,448L1748,451L1752,457L1753,462L1759,472L1764,483L1765,488L1768,492L1769,497L1774,504L1775,509L1780,518L1781,523L1784,527L1785,532L1790,539L1791,545L1798,555L1805,558L1811,557L1814,558L1826,557L1860,558L1869,555L1872,551L1873,544L1875,542L1884,521L1891,509L1892,503L1901,487L1908,468L1917,452L1922,438L1925,434L1933,415L1937,409L1944,390L1949,383L1949,380L1953,373L1953,370L1958,362L1959,356L1968,340L1980,312L1985,304L1985,301L1997,277L1998,272L2007,256L2012,243L2017,235L2018,230L2022,225L2024,217L2028,212L2029,207L2038,188L2040,180L2043,177L2044,172L2055,151L2056,145L2063,133L2062,126L2058,124L1987,124L1983,127L1976,138L1966,164L1961,172L1948,203L1939,219L1939,223L1936,227L1933,236L1931,238L1926,252L1914,276L1907,294L1903,299L1897,312L1891,329L1887,334L1887,337L1881,347L1876,361L1870,373L1866,378L1865,383L1859,393L1858,398L1849,415L1848,421L1846,423L1842,435L1838,442L1837,448L1832,450L1831,446L1826,438L1825,433L1820,425L1820,422L1805,393L1804,388L1800,381L1800,378L1796,372L1793,364L1789,359L1788,354L1779,337L1778,331L1773,324L1768,310L1762,300L1760,293L1757,289L1756,283L1753,280L1751,271L1747,265L1746,260L1742,254L1739,245L1737,244L1735,236L1730,228L1730,225L1726,218L1725,212L1714,192L1709,178L1704,169L1704,166L1698,156L1693,142L1689,136L1686,128L1681,124Z"/><path fill="#26759c" fill-rule="evenodd" d="M354,99L345,98L335,95L315,94L281,95L271,98L253,101L228,110L211,118L181,137L154,161L141,176L131,190L119,210L111,227L105,243L103,252L101,255L98,267L93,300L93,343L95,360L97,364L98,374L100,378L100,383L103,391L103,395L113,422L115,424L125,446L138,466L151,483L162,495L183,514L186,514L185,510L168,493L161,484L144,457L131,428L125,410L119,386L119,380L116,368L114,344L115,309L119,282L125,259L133,237L147,209L168,179L200,147L221,132L250,117L258,115L272,109L280,108L283,106L306,102L336,102L348,103L353,105L357,105L360,103Z"/><path fill="#0a6c9c" fill-rule="evenodd" d="M17,283L15,301L15,351L18,375L21,391L23,395L24,404L33,434L44,461L54,481L66,501L81,522L100,544L126,569L149,587L175,603L200,615L234,627L245,630L250,630L258,633L300,638L339,637L379,630L392,626L395,624L398,624L420,615L459,593L482,577L513,553L562,510L660,412L682,388L682,385L667,369L651,350L649,346L645,345L615,378L559,435L519,473L465,519L426,547L401,561L374,572L352,578L338,580L303,581L272,578L264,575L258,575L251,572L247,572L217,561L213,558L196,550L176,537L163,527L135,499L119,479L102,451L91,427L78,386L72,349L72,303L75,287L75,279L79,260L81,256L81,252L96,211L113,180L125,163L137,149L161,126L175,115L195,102L224,88L251,79L259,78L262,76L269,76L281,73L293,72L325,72L337,73L348,76L354,76L376,82L378,84L397,91L421,104L442,118L491,156L559,219L651,315L687,357L751,427L813,490L867,540L916,579L953,603L990,621L1006,627L1010,627L1013,629L1020,630L1028,633L1068,639L1108,639L1119,638L1125,636L1132,636L1137,634L1160,630L1173,626L1176,624L1182,623L1185,621L1188,621L1209,612L1219,606L1221,606L1246,591L1276,568L1297,548L1319,522L1343,485L1354,463L1364,438L1369,418L1372,411L1372,407L1374,403L1374,398L1377,389L1378,377L1380,371L1380,358L1382,350L1383,335L1382,308L1380,299L1380,287L1377,269L1371,242L1366,225L1363,219L1363,216L1350,186L1337,162L1321,137L1305,117L1287,98L1258,73L1224,51L1202,41L1200,39L1197,39L1193,36L1168,27L1164,27L1144,21L1127,18L1090,15L1047,18L1009,27L972,42L954,52L923,72L887,99L864,118L822,156L782,195L715,266L715,269L748,308L753,309L789,269L840,217L882,177L919,145L948,123L980,102L1001,91L1020,84L1022,82L1026,82L1032,79L1036,79L1043,76L1049,76L1059,73L1070,72L1101,72L1113,73L1125,76L1132,76L1140,79L1145,79L1148,81L1155,82L1178,91L1180,93L1203,104L1223,117L1239,130L1259,150L1275,170L1295,202L1311,238L1320,271L1320,277L1323,288L1323,296L1326,315L1326,342L1323,372L1320,388L1314,411L1305,435L1285,473L1265,500L1237,528L1222,540L1208,549L1188,560L1167,569L1135,578L1105,582L1072,582L1042,578L1035,575L1030,575L999,563L997,561L995,561L975,550L949,533L913,505L884,480L852,450L809,407L732,324L707,294L657,239L556,138L508,97L460,62L420,39L390,27L369,21L364,21L354,18L323,15L296,15L266,18L257,21L251,21L243,24L238,24L231,27L227,27L193,40L171,51L143,69L116,91L95,112L82,127L66,150L62,158L59,161L59,163L53,172L42,194L31,222L25,243L24,251L21,259L21,265Z"/>
  </g>
</svg>